<svg fill="none" height="113" viewBox="0 0 114 113" width="114" xmlns="http://www.w3.org/2000/svg">
    <path
        d="M87.1206 0H26.8795C12.3105 0 0.5 11.8105 0.5 26.3795V86.6205C0.5 101.19 12.3105 113 26.8795 113H87.1206C101.69 113 113.5 101.19 113.5 86.6205V26.3795C113.5 11.8105 101.69 0 87.1206 0Z"
        fill="#101F79" />
    <path
        d="M83.6241 33.7421C82.1681 30.3044 80.0853 27.2104 77.4362 24.5513C74.7871 21.9022 71.6932 19.8092 68.2453 18.3633C64.6762 16.8568 60.8947 16.0884 56.9918 16.0884C53.089 16.0884 49.3075 16.8568 45.7383 18.3633C42.3006 19.8193 39.2067 21.9022 36.5475 24.5513C33.8984 27.2003 31.8156 30.2943 30.3596 33.7421C29.3687 36.0777 28.7014 38.5044 28.3576 40.9917C29.3384 39.3941 31.2089 38.1201 33.4839 38.0494C36.4767 27.9081 45.89 20.4765 56.9918 20.4765C68.0937 20.4765 77.4968 27.898 80.4998 38.0494C82.7748 38.1201 84.6554 39.4144 85.6261 41.022C85.2823 38.5145 84.615 36.0777 83.6241 33.732V33.7421ZM39.6313 91.0105H38.4686L36.2037 96.5109H37.417L37.8518 95.3279H40.2279L40.6829 96.5109H41.9063L39.6313 91.0105ZM38.2462 94.3674L39.055 92.2643L39.8639 94.3674H38.2462ZM44.4745 95.4796V91.0105H43.2915V96.5109H47.0224V95.4796H44.4745ZM51.36 91.0105H50.1973L47.9325 96.5109H49.1255L49.5805 95.3279H51.9566L52.4116 96.5109H53.635L51.36 91.0105ZM49.9648 94.3674L50.7736 92.2643L51.5825 94.3674H49.9648ZM57.3255 91.0105H55.0202V96.5109H57.3255C61.0868 96.5109 61.0969 91.0105 57.3255 91.0105ZM56.2032 95.4594V92.052C57.1637 92.052 58.9432 91.7992 58.9432 93.7506C58.9432 95.702 57.1739 95.4594 56.2032 95.4594ZM63.0584 95.4998V94.2258H65.4143V93.2248H63.0584V92.0317H65.7176V91.0105H61.8754V96.5109H65.8187V95.4897H63.0584V95.4998ZM67.0522 91.0105V92.0419H68.6801V96.5109H69.8631V92.0419H71.4808V91.0105H67.0624H67.0522ZM72.9772 91.0105V96.5109H74.1603V91.0105H72.9772ZM60.9048 54.7223V60.3541H55.4145L44.3228 40.4659C42.8972 41.1534 41.4817 41.8208 41.4817 43.4486C41.4817 44.8237 41.7344 44.9147 50.3692 60.344H32.0279C29.9551 60.5968 28.0847 61.6281 26.8208 63.4177V50.8802C26.6489 48.9085 24.7885 47.857 23.0898 48.494C23.7875 47.3919 25.4659 46.3707 27.6499 47.0178L28.115 47.1492V46.6639C28.2464 44.2474 30.4506 42.2555 32.4627 41.9219V54.6819H40.8952C37.0429 47.8469 35.9206 46.4111 35.9206 43.4587C35.9206 41.9825 36.2341 40.5973 36.9419 39.3132C38.3169 36.7451 40.329 36.1788 46.6888 32.9636C58.6702 54.6313 58.549 54.237 58.549 54.7021H60.9048V54.7223ZM90.904 48.5142C89.1851 47.857 87.3449 48.9389 87.1731 50.9307L87.1427 63.438C85.8081 61.5472 83.7656 60.4755 81.6929 60.3643H70.4596V54.7324H81.5008L81.5311 41.9522C83.4825 42.2656 85.7373 44.2069 85.8587 46.6942V47.1796L86.344 47.0481C88.3763 46.4415 90.1356 47.3211 90.904 48.5243V48.5142ZM87.1528 67.5228V90.1208C85.7878 88.1795 83.7556 87.1583 81.612 87.0471H32.3413C30.1877 87.1684 28.1655 88.2098 26.8208 90.1208V81.3849H49.9748C49.9748 79.8683 50.258 78.4123 49.3783 76.6732C48.5998 75.1869 47.5988 74.4286 46.436 74.0545C45.2025 73.5894 45.3238 73.7107 34.6669 73.7107C35.0006 71.6683 37.0025 69.4944 39.4089 69.3832H39.8942L39.7628 68.8979C39.1561 66.8757 40.0156 65.1164 41.239 64.3378C40.8952 65.2579 41.0064 66.4611 41.8254 67.2296C42.9073 68.3115 44.1105 68.2407 45.7283 68.2407C52.4925 68.2407 55.5965 73.1344 55.5965 79.5548V81.3849H62.8865C62.8865 37.4225 62.5731 38.4336 63.5842 37.4326C64.4638 36.5529 65.2828 36.9372 65.6468 37.0585C65.6974 35.3093 67.0118 33.9544 68.5285 33.0647V81.395H81.5109C81.5109 74.5095 81.2783 72.8007 82.2085 71.9008C83.0579 71.0414 83.8365 71.3852 84.2712 71.5267C84.3218 69.7775 85.6362 68.4227 87.1528 67.5329V67.5228ZM56.9918 38.0393L53.2002 34.2477L56.9918 30.456L60.7834 34.2477L56.9918 38.0393ZM56.9918 30.2336L54.1001 27.3419L56.9918 24.4501L59.8836 27.3419L56.9918 30.2336ZM72.7245 65.4399L75.6162 62.5482L78.508 65.4399L75.6162 68.3317L72.7245 65.4399ZM72.7245 71.2436L75.6162 68.3519L78.508 71.2436L75.6162 74.1354L72.7245 71.2436ZM27.2859 66.8757L30.1776 63.984L33.0693 66.8757L30.1776 69.7674L27.2859 66.8757ZM77.9013 93.8214L80.9953 90.7274L84.0892 93.8214L80.9953 96.9153L77.9013 93.8214ZM27.2859 72.6895L30.1776 69.7978L33.0693 72.6895L30.1776 75.5812L27.2859 72.6895ZM34.5152 93.6596C35.5667 93.053 35.5971 91.0105 33.2716 91.0105H30.7843V96.5109C33.2109 96.5109 35.4454 96.8344 35.4454 95.0145C35.4454 94.3168 35.0713 93.8517 34.5051 93.6596H34.5152ZM31.947 91.9711C33.0896 91.9711 34.0097 91.8396 34.0097 92.598C34.0097 93.4068 33.0491 93.2552 31.947 93.2552V91.961V91.9711ZM31.947 95.5605V94.1854C33.3221 94.1854 34.2523 94.0337 34.2523 94.883C34.2523 95.7324 33.312 95.5605 31.947 95.5605Z"
        fill="url(#paint0_linear_4185_3094)" />
    <defs>
        <linearGradient gradientUnits="userSpaceOnUse" id="paint0_linear_4185_3094" x1="57.002" x2="57.002"
            y1="28.8282" y2="96.7839">
            <stop stop-color="#E1C68F" />
            <stop offset="1" stop-color="#C1AB7A" />
        </linearGradient>
    </defs>
</svg>
