<svg width="96" height="96" viewBox="0 0 96 96" fill="none" xmlns="http://www.w3.org/2000/svg">
<path fill-rule="evenodd" clip-rule="evenodd" d="M48 8C25.9086 8 8 25.9086 8 48C8 70.0914 25.9086 88 48 88C70.0914 88 88 70.0914 88 48C88 25.9086 70.0914 8 48 8ZM16 48C16 30.3269 30.3269 16 48 16C55.395 16 62.2042 18.5085 67.623 22.7209L22.7209 67.623C18.5085 62.2042 16 55.395 16 48ZM28.3778 73.2797C33.7965 77.4918 40.6053 80 48 80C65.6731 80 80 65.6731 80 48C80 40.6053 77.4918 33.7965 73.2797 28.3778L28.3778 73.2797Z" fill="#BB0013" fill-opacity="0.08"/>
</svg>
