<svg width="48" height="48" viewBox="0 0 48 48" fill="none" xmlns="http://www.w3.org/2000/svg">
<g clip-path="url(#clip0_4352_5655)">
<path d="M14.2426 6.92893C16.118 5.05357 18.6615 4 21.3137 4H26.6863C29.3385 4 31.882 5.05357 33.7574 6.92893L35.7574 8.92893C36.4432 9.61473 37.3733 10 38.3431 10C42.5719 10 46 13.4281 46 17.6569V34C46 39.5228 41.5229 44 36 44H12C6.47715 44 2 39.5228 2 34V21H3V22C3 24.0503 4.2341 25.8124 6 26.584L6.05377 26.6071C6.65197 26.8601 7.30964 27 8 27C10.7614 27 13 24.7614 13 22V21H14C14.5182 21 15.0179 20.9212 15.4879 20.7749C14.5505 22.2976 14.0098 24.0907 14.0098 26.01C14.0098 31.5329 18.4869 36.01 24.0098 36.01C29.5326 36.01 34.0098 31.5329 34.0098 26.01C34.0098 20.4872 29.5326 16.01 24.0098 16.01C22.0905 16.01 20.2975 16.5507 18.7748 17.4881C18.9212 17.018 19 16.5182 19 16C19 13.789 17.5648 11.9131 15.5752 11.2532C15.08 11.0889 14.5504 11 14 11H13V10C13 9.44962 12.9111 8.92002 12.7468 8.42476L14.2426 6.92893Z" fill="#1B1B21"/>
<path d="M6 18L2 18C0.89543 18 0 17.1046 0 16C0 14.8954 0.89543 14 2 14H2.92803H6V10.928V10C6 8.89543 6.89543 8 8 8C9.09919 8 9.99128 8.88673 9.99994 9.98388L10 10V13.9923V14H14C15.1046 14 16 14.8954 16 16C16 17.1046 15.1046 18 14 18H10V22C10 23.1046 9.10457 24 8 24C6.89543 24 6 23.1046 6 22V18Z" fill="#1B1B21"/>
<path d="M18.0098 26.01C18.0098 22.6963 20.6961 20.01 24.0098 20.01C27.3235 20.01 30.0098 22.6963 30.0098 26.01C30.0098 29.3237 27.3235 32.01 24.0098 32.01C20.6961 32.01 18.0098 29.3237 18.0098 26.01Z" fill="#1B1B21"/>
</g>
<defs>
<clipPath id="clip0_4352_5655">
<rect width="48" height="48" fill="white"/>
</clipPath>
</defs>
</svg>
