<svg width="80" height="80" viewBox="0 0 80 80" fill="none" xmlns="http://www.w3.org/2000/svg">
<path opacity="0.4" d="M80 40C80 62.0914 62.0914 80 40 80C17.9086 80 0 62.0914 0 40C0 17.9086 17.9086 0 40 0C62.0914 0 80 17.9086 80 40Z" fill="#217012"/>
<path fill-rule="evenodd" clip-rule="evenodd" d="M57.8419 25.6321C59.1497 26.6493 59.3853 28.5341 58.3681 29.842L42.3401 50.4494C39.8452 53.6571 35.1524 54.0733 32.1319 51.3549L21.9931 42.23C20.7616 41.1216 20.6618 39.2248 21.7701 37.9932C22.8785 36.7617 24.7754 36.6619 26.0069 37.7703L36.1456 46.8951C36.5771 47.2835 37.2476 47.224 37.604 46.7658L53.632 26.1583C54.6492 24.8505 56.534 24.6149 57.8419 25.6321Z" fill="#217012"/>
</svg>
