<svg width="18" height="18" viewBox="0 0 18 18" fill="none" xmlns="http://www.w3.org/2000/svg">
<path opacity="0.4" d="M16.5 9C16.5 13.1421 13.1421 16.5 9 16.5C4.85786 16.5 1.5 13.1421 1.5 9C1.5 4.85786 4.85786 1.5 9 1.5C13.1421 1.5 16.5 4.85786 16.5 9Z" fill="#388F2B"/>
<path fill-rule="evenodd" clip-rule="evenodd" d="M12.3453 6.30602C12.5906 6.49674 12.6347 6.85015 12.444 7.09537L9.43876 10.9593C8.97098 11.5607 8.09107 11.6388 7.52472 11.129L5.62371 9.41813C5.3928 9.21031 5.37408 8.85465 5.5819 8.62373C5.78972 8.39282 6.14539 8.3741 6.3763 8.58192L8.27731 10.2928C8.35822 10.3656 8.48392 10.3545 8.55074 10.2686L11.556 6.40468C11.7467 6.15946 12.1001 6.11529 12.3453 6.30602Z" fill="#388F2B"/>
</svg>
