<svg width="211" height="211" viewBox="0 0 211 211" fill="none" xmlns="http://www.w3.org/2000/svg">
<path opacity="0.3" d="M158.209 114.292C150.015 116.958 142.186 121.013 134.961 126.332C133.931 126.775 133.064 127.635 132.512 128.761C131.96 129.887 131.758 131.208 131.941 132.494V145.942C131.887 152.684 133.313 159.326 136.077 165.212C138.841 171.098 142.848 176.023 147.702 179.502C150.848 182.102 154.434 183.851 158.209 184.625C161.984 183.851 165.57 182.102 168.716 179.502C173.925 176.516 178.233 171.691 181.053 165.686C183.874 159.68 185.069 152.785 184.477 145.942V132.494C184.66 131.208 184.458 129.887 183.906 128.761C183.353 127.635 182.487 126.775 181.456 126.332C174.232 121.013 166.403 116.958 158.209 114.292Z" fill="#101F79"/>
<path d="M100.848 188.979C97.8002 188.979 81.7159 188.99 78.9632 189.001C26.375 189.205 26.375 189.301 26.375 110.706V74.272C26.375 21.907 26.375 21.9791 87.9439 21.9791C149.513 21.9791 149.458 21.907 149.458 74.272V83.5208" stroke="#101F79" stroke-width="4" stroke-linecap="round" stroke-linejoin="round"/>
<path d="M114.292 26.375C114.292 35.1667 114.292 48.3542 96.7082 48.3542H79.1248C61.5415 48.3542 61.5415 35.1667 61.5415 26.375" stroke="#101F79" stroke-width="4" stroke-linecap="round" stroke-linejoin="round"/>
<path d="M149.459 109.896C138.489 112.896 128.007 117.458 118.336 123.441C116.957 123.94 115.796 124.907 115.057 126.174C114.318 127.441 114.047 128.927 114.292 130.373V145.502C114.22 153.087 116.129 160.56 119.829 167.181C123.53 173.802 128.894 179.344 135.392 183.257C139.604 186.183 144.405 188.15 149.459 189.021C154.512 188.15 159.314 186.183 163.525 183.257C170.498 179.898 176.266 174.47 180.042 167.714C183.818 160.958 185.418 153.201 184.625 145.502V130.373C184.87 128.927 184.599 127.441 183.86 126.174C183.121 124.907 181.96 123.94 180.581 123.441C170.91 117.458 160.428 112.896 149.459 109.896Z" stroke="#101F79" stroke-width="4" stroke-linecap="round" stroke-linejoin="round"/>
</svg>
