<svg width="211" height="211" viewBox="0 0 211 211" fill="none" xmlns="http://www.w3.org/2000/svg">
<path opacity="0.3" d="M109.848 79.125C100.288 81.7918 91.154 85.8467 82.7258 91.1653C81.5237 91.6086 80.5124 92.4683 79.8683 93.5945C79.2242 94.7207 78.9882 96.0417 79.2015 97.3273V110.775C79.1389 117.517 80.8021 124.159 84.027 130.045C87.2518 135.931 91.9266 140.856 97.5893 144.335C101.26 146.935 105.444 148.684 109.848 149.458C114.252 148.684 118.436 146.935 122.106 144.335C128.183 141.349 133.209 136.525 136.5 130.519C139.79 124.513 141.185 117.619 140.494 110.775V97.3273C140.707 96.0417 140.471 94.7207 139.827 93.5945C139.183 92.4683 138.172 91.6086 136.97 91.1653C128.542 85.8467 119.407 81.7918 109.848 79.125Z" fill="#101F79"/>
<path d="M21.9792 105.5C21.9357 115.903 23.9526 126.212 27.9136 135.831C31.8746 145.451 37.7013 154.191 45.0574 161.547C52.4135 168.903 61.1535 174.73 70.773 178.691C80.3925 182.652 90.7012 184.669 101.104 184.625C119.022 184.445 136.36 178.253 150.338 167.042H187.263C187.553 167.042 187.838 166.97 188.094 166.833C188.349 166.696 188.567 166.497 188.727 166.256C188.888 166.014 188.986 165.737 189.013 165.448C189.04 165.159 188.995 164.868 188.883 164.601L174.954 133.633C178.475 124.673 180.265 115.127 180.229 105.5C180.229 84.5147 171.893 64.389 157.054 49.5502C142.215 34.7114 122.089 26.375 101.104 26.375C80.119 26.375 59.9932 34.7114 45.1544 49.5502C30.3156 64.389 21.9792 84.5147 21.9792 105.5Z" stroke="#101F79" stroke-width="4" stroke-linecap="round" stroke-linejoin="round"/>
<path d="M101.049 65.9375C90.1239 68.9377 79.6849 73.4994 70.0527 79.4828C68.6789 79.9815 67.5231 80.9487 66.787 82.2157C66.0509 83.4826 65.7812 84.9688 66.0249 86.415V101.544C65.9533 109.129 67.8542 116.601 71.5398 123.223C75.2253 129.844 80.5679 135.385 87.0395 139.299C91.2342 142.224 96.0162 144.192 101.049 145.063C106.082 144.192 110.864 142.224 115.059 139.299C122.004 135.94 127.748 130.512 131.509 123.756C135.269 116.999 136.863 109.243 136.074 101.544V86.415C136.317 84.9688 136.048 83.4826 135.312 82.2157C134.575 80.9487 133.42 79.9815 132.046 79.4828C122.414 73.4994 111.975 68.9377 101.049 65.9375Z" stroke="#101F79" stroke-width="4" stroke-linecap="round" stroke-linejoin="round"/>
</svg>
