<svg width="211" height="211" viewBox="0 0 211 211" fill="none" xmlns="http://www.w3.org/2000/svg">
<path opacity="0.3" d="M58.0766 76.5947C62.6659 79.2854 66.5709 83.2517 69.4224 88.1185C70.0234 89.3061 70.3371 90.651 70.332 92.0183C70.3269 93.3857 70.0032 94.7276 69.3933 95.9094C66.0274 105.487 58.8355 113.284 58.2382 124.004C57.8947 130.201 62.3911 135.856 61.2455 141.718C59.1257 148.01 55.7498 153.667 51.3795 158.251C38.6668 147.116 30.0935 131.034 27.3357 113.149C24.5779 95.2647 27.8338 76.8629 36.467 61.5416C43.0812 67.5626 50.3416 72.6201 58.0766 76.5947Z" fill="#101F79"/>
<path opacity="0.3" d="M175.833 61.5417C165.864 61.0944 155.818 61.669 145.887 60.9305C144.153 60.9054 142.449 60.6331 140.9 60.1334C139.351 59.6337 137.995 58.9191 136.931 58.0417C134.436 55.5466 131.5 53.2439 128.183 51.1791C124.42 49.2169 119.247 48.2058 115.759 46.3495C115.138 46.0769 114.634 45.7091 114.292 45.2797C114.388 44.1855 116.151 42.8874 116.884 42.0008C120.905 37.1117 123.648 31.833 125.002 26.375C136.828 29.648 147.457 34.4663 156.21 40.5218C164.963 46.5773 171.646 53.7366 175.833 61.5417Z" fill="#101F79"/>
<path d="M180.229 96.7083C180.229 81.0588 175.588 65.7608 166.894 52.7488C158.2 39.7368 145.842 29.5951 131.384 23.6063C116.926 17.6175 101.016 16.0506 85.6675 19.1037C70.3188 22.1567 56.22 29.6926 45.1542 40.7585C34.0884 51.8243 26.5525 65.923 23.4994 81.2718C20.4463 96.6205 22.0133 112.53 28.0021 126.988C33.9909 141.446 44.1325 153.804 57.1445 162.498C70.1566 171.193 85.4546 175.833 101.104 175.833" stroke="#101F79" stroke-width="4" stroke-linecap="round" stroke-linejoin="round"/>
<path d="M120.153 21.9791C120.153 24.9097 119.274 28.1333 115.757 35.1666C111.361 43.9583 106.965 52.75 115.757 57.1458C121.317 59.9259 128.944 57.1458 128.945 65.9375C128.945 76.3776 137.736 79.125 146.528 79.125C153.561 79.125 168.507 79.125 177.299 83.5208" stroke="#101F79" stroke-width="4" stroke-linecap="round" stroke-linejoin="round"/>
<path d="M41.0278 48.3541C46.8889 54.2152 49.8195 57.1458 67.4028 65.9375C84.9862 74.7291 84.9862 87.9166 80.5903 96.7083C76.1945 105.5 67.4028 114.292 71.7987 123.083C76.1945 131.875 80.5903 140.667 71.7987 149.458C64.7653 156.492 60.0764 161.181 58.6112 162.646" stroke="#101F79" stroke-width="4" stroke-linecap="round" stroke-linejoin="round"/>
<circle cx="155" cy="152" r="32" stroke="#101F79" stroke-width="4"/>
<circle opacity="0.3" cx="160.5" cy="157.5" r="25.5" fill="#101F79"/>
</svg>
