<svg width="96" height="96" viewBox="0 0 96 96" fill="none" xmlns="http://www.w3.org/2000/svg">
<path d="M89.3465 32.9511L87.8775 29.4048L86.1051 26L84.0427 22.7626L81.706 19.7173L79.1127 16.8873L76.2827 14.294L73.2374 11.9573L70 9.89488L66.5952 8.12246L63.0489 6.65353L59.388 5.49926L55.6405 4.66846L51.8349 4.16743L48 4L44.1651 4.16743L40.3595 4.66846L36.612 5.49926L32.9511 6.65353L29.4048 8.12246L26 9.89488L22.7626 11.9573L19.7173 14.294L16.8873 16.8873L14.294 19.7173L11.9573 22.7626L9.89488 26L8.12246 29.4048L6.65353 32.9511L5.49926 36.612L4.66846 40.3595L4.16743 44.1651L4 48L4.16743 51.8349L4.66846 55.6405L5.49926 59.388L6.65353 63.0489L8.12246 66.5952L9.89488 70L11.9573 73.2374L14.294 76.2827L16.8873 79.1127L19.7173 81.706L22.7626 84.0427L26 86.1051L29.4048 87.8775L32.9511 89.3465L36.612 90.5007L40.3595 91.3315L44.1651 91.8326L48 92L51.8349 91.8326L55.6405 91.3315L59.388 90.5007L63.0489 89.3465L66.5952 87.8775L70 86.1051L73.2374 84.0427L76.2827 81.706" stroke="#101F79" stroke-width="4" stroke-linecap="round"/>
</svg>
