<svg width="48" height="48" viewBox="0 0 48 48" fill="none" xmlns="http://www.w3.org/2000/svg">
<path d="M43.0526 34.9998L42.0214 36.6184L40.853 38.1411L39.5564 39.5561L38.1413 40.8527L36.6187 42.0211L35 43.0523L33.2976 43.9385L31.5244 44.673L29.694 45.2501L27.8203 45.6655L25.9174 45.916L24 45.9998L22.0826 45.916L20.1797 45.6655L18.306 45.2501L16.4756 44.673L14.7024 43.9385L13 43.0523L11.3813 42.0211L9.85867 40.8527L8.44365 39.5561L7.14702 38.1411L5.97865 36.6184L4.94744 34.9998L4.06123 33.2974L3.32676 31.5242L2.74963 29.6938L2.33423 27.82L2.08372 25.9172L2 23.9998L2.08372 22.0823L2.33423 20.1795L2.74963 18.3057L3.32676 16.4753L4.06123 14.7022L4.94744 12.9998L5.97865 11.3811L7.14702 9.85843L8.44365 8.44341L9.85867 7.14678L11.3813 5.97841L13 4.9472L14.7024 4.06099L16.4756 3.32652L18.306 2.74939L20.1797 2.33398" stroke="#D1D4FE" stroke-width="4" stroke-linecap="round"/>
<path d="M27.8203 2.33398L29.6941 2.74939L31.5245 3.32652L33.2977 4.06099L35.0001 4.9472L36.6187 5.97841L38.1414 7.14678L39.5564 8.44341L40.853 9.85843L42.0214 11.3811L43.0526 12.9998L43.9388 14.7022L44.6733 16.4753L45.2504 18.3057L45.6658 20.1795L45.9163 22.0823L46.0001 23.9998L45.9163 25.9172L45.6658 27.82" stroke="#101F79" stroke-width="4" stroke-linecap="round"/>
</svg>
