<svg width="22" height="22" viewBox="0 0 22 22" fill="none" xmlns="http://www.w3.org/2000/svg">
<path d="M11 0.25C11.4142 0.25 11.75 0.585786 11.75 1C11.75 1.41421 11.4142 1.75 11 1.75H5C3.20507 1.75 1.75 3.20507 1.75 5V17C1.75 18.7949 3.20507 20.25 5 20.25H17C18.7949 20.25 20.25 18.7949 20.25 17V11C20.25 10.5858 20.5858 10.25 21 10.25C21.4142 10.25 21.75 10.5858 21.75 11V17C21.75 19.6234 19.6234 21.75 17 21.75H5C2.37665 21.75 0.25 19.6234 0.25 17V5C0.25 2.37665 2.37665 0.25 5 0.25H11ZM12.8555 4.24023C13.3239 5.12205 14.0131 6.2358 14.8887 7.11133C15.7642 7.98685 16.878 8.67606 17.7598 9.14453L12.0596 14.8438C11.7059 15.1973 11.247 15.4273 10.752 15.498L7.31934 15.9883C6.55675 16.097 5.90298 15.4432 6.01172 14.6807L6.50195 11.248C6.57268 10.753 6.80267 10.2941 7.15625 9.94043L12.8555 4.24023ZM15.4189 1.67676C16.3217 0.774118 17.7857 0.774088 18.6885 1.67676L20.3232 3.31152C21.2259 4.21427 21.2259 5.67829 20.3232 6.58105L18.874 8.03027C18.7603 7.97393 18.6397 7.913 18.5156 7.84766C17.6803 7.40785 16.689 6.79056 15.9492 6.05078C15.2094 5.31099 14.5921 4.31973 14.1523 3.48438C14.087 3.36024 14.0261 3.23976 13.9697 3.12598L15.4189 1.67676Z" fill="#1B1B21"/>
</svg>
