<svg width="48" height="48" viewBox="0 0 48 48" fill="none" xmlns="http://www.w3.org/2000/svg">
<path fill-rule="evenodd" clip-rule="evenodd" d="M0.34713 16.7785C-1.08229 11.4439 2.08354 5.9605 7.4182 4.53108L23.0165 0.351525C28.3512 -1.07789 33.8345 2.08793 35.264 7.42259L35.4465 8.10392C40.2839 8.80481 44 12.9685 44 18.0001V34.0001C44 39.5229 39.5229 44.0001 34 44.0001H18C15.1718 44.0001 12.6178 42.826 10.7989 40.9387C8.2818 40.4214 6.17489 38.528 5.47642 35.9213L0.34713 16.7785ZM24.0518 4.21523C27.0968 3.39931 30.2227 5.07875 31.2581 8.00006H18C12.4772 8.00006 8 12.4772 8 18.0001V29.8846L4.21083 15.7432C3.35318 12.5425 5.25268 9.25243 8.45347 8.39478L24.0518 4.21523ZM12 18.0001C12 14.6864 14.6863 12.0001 18 12.0001H34C37.3137 12.0001 40 14.6864 40 18.0001V34.0001C40 37.3138 37.3137 40.0001 34 40.0001H18C14.6863 40.0001 12 37.3138 12 34.0001V18.0001Z" fill="#1B1B21"/>
<path fill-rule="evenodd" clip-rule="evenodd" d="M18 12.0001C14.6863 12.0001 12 14.6864 12 18.0001V34.0001C12 37.3138 14.6863 40.0001 18 40.0001H34C37.3137 40.0001 40 37.3138 40 34.0001V18.0001C40 14.6864 37.3137 12.0001 34 12.0001H18ZM29.5255 24.4647L35.8634 34.6127C36.2453 35.2293 35.7816 36.0001 35.0269 36.0001H16.977C16.2222 36.0001 15.7494 35.2293 16.1404 34.6127L19.7958 28.7551C20.1777 28.147 21.0962 28.147 21.4781 28.7551L23.324 31.701L27.8524 24.4561C28.2343 23.8481 29.1527 23.8481 29.5346 24.4561L29.5255 24.4647ZM20 16.0001C18.3431 16.0001 17 17.3432 17 19.0001C17 20.6569 18.3433 22.0001 20.0002 22.0001C21.6571 22.0001 23.0002 20.6569 23.0002 19.0001C23.0002 17.3432 21.6569 16.0001 20 16.0001Z" fill="#1B1B21"/>
</svg>
