<svg width="48" height="48" viewBox="0 0 48 48" fill="none" xmlns="http://www.w3.org/2000/svg">
<path fill-rule="evenodd" clip-rule="evenodd" d="M13.7903 7.58156C17.0316 5.01702 20.9845 4 24 4C26.931 4 30.8952 4.79352 34.1785 7.28734C37.5555 9.85242 40 14.0606 40 20.4C40 26.7267 37.4327 31.953 34.3141 35.8664C32.2473 38.46 29.9046 40.5218 27.8116 42H32C33.1046 42 34 42.8954 34 44C34 45.1046 33.1046 46 32 46H16C14.8954 46 14 45.1046 14 44C14 42.8954 14.8954 42 16 42H20.3924C18.2547 40.4109 15.8185 38.1985 13.6773 35.4731C10.587 31.5396 8 26.3906 8 20.4C8 14.3835 10.4712 10.2077 13.7903 7.58156ZM16 20C16 15.5817 19.5817 12 24 12C28.4183 12 32 15.5817 32 20C32 24.4183 28.4183 28 24 28C19.5817 28 16 24.4183 16 20Z" fill="#1B1B21"/>
</svg>
