<svg width="16" height="18" viewBox="0 0 16 18" fill="none" xmlns="http://www.w3.org/2000/svg">
<path d="M10.5764 15.5C10.81 15.5 11 15.6893 11.0002 15.9229C11.0002 15.9735 10.991 16.0243 10.9719 16.0713C10.5146 17.1989 9.35667 17.9999 8.00024 18C6.64371 18 5.48495 17.199 5.02759 16.0713C5.0086 16.0244 5.00024 15.9735 5.00024 15.9229C5.00048 15.6893 5.18955 15.5001 5.4231 15.5H10.5764ZM8.00024 0C11.2292 0.000124046 13.9464 2.49088 14.3206 5.79395L14.6653 8.83887C14.751 9.59511 15.0574 10.3068 15.5442 10.8799C16.5775 12.0961 15.7393 13.9998 14.1702 14H1.83032C0.260999 14 -0.578084 12.0962 0.455322 10.8799C0.94222 10.3068 1.24946 9.59523 1.3352 8.83887L1.67993 5.79395C2.05417 2.49083 4.77123 0 8.00024 0Z" fill="#1B1B21"/>
</svg>
