<svg width="22" height="22" viewBox="0 0 22 22" fill="none" xmlns="http://www.w3.org/2000/svg">
<path fill-rule="evenodd" clip-rule="evenodd" d="M13.2 1.3979C13.2 0.62586 12.5741 0 11.8021 0H10.2018C9.42762 0 8.8 0.627624 8.8 1.40184C8.8 2.03964 8.36448 2.58624 7.77179 2.82183C7.68291 2.85716 7.5946 2.89394 7.50691 2.93214C6.91981 3.18794 6.22188 3.11061 5.76904 2.65777C5.22141 2.11014 4.33352 2.11014 3.78588 2.65777L2.66832 3.77533C2.11486 4.32879 2.11486 5.22613 2.66832 5.77959C3.13102 6.24229 3.20401 6.95635 2.93279 7.55185C2.89846 7.62723 2.86511 7.70336 2.83282 7.78027C2.5865 8.36684 2.04086 8.8 1.40467 8.8C0.628894 8.8 0 9.42889 0 10.2047V11.7964C0 12.5716 0.628418 13.2 1.40361 13.2C2.04214 13.2 2.58962 13.6358 2.82421 14.2297C2.85986 14.3199 2.89696 14.4096 2.93551 14.4987C3.18898 15.0842 3.10981 15.7789 2.65864 16.2301C2.11052 16.7782 2.11052 17.6669 2.65864 18.215L3.78777 19.3441C4.33436 19.8907 5.22056 19.8907 5.76716 19.3441C6.21647 18.8948 6.9079 18.8156 7.49068 19.0688C7.58427 19.1095 7.67817 19.1484 7.77233 19.1856C8.36471 19.4194 8.8 19.9652 8.8 20.6021C8.8 21.3741 9.42586 22 10.1979 22H11.7982C12.5724 22 13.2 21.3724 13.2 20.5982C13.2 19.9604 13.6355 19.4138 14.2282 19.1782C14.3171 19.1428 14.4054 19.1061 14.4931 19.0679C15.0802 18.8121 15.7781 18.8894 16.231 19.3422C16.7786 19.8899 17.6665 19.8899 18.2141 19.3422L19.3317 18.2247C19.8851 17.6712 19.8851 16.7739 19.3317 16.2204C18.869 15.7577 18.796 15.0436 19.0672 14.4481C19.1015 14.3728 19.1349 14.2966 19.1672 14.2197C19.4135 13.6332 19.9591 13.2 20.5953 13.2C21.3711 13.2 22 12.5711 22 11.7953V10.2036C22 9.42842 21.3716 8.8 20.5964 8.8C19.9579 8.8 19.4104 8.36417 19.1758 7.7703C19.1401 7.68005 19.103 7.59038 19.0645 7.50132C18.811 6.91576 18.8902 6.22108 19.3414 5.7699C19.8895 5.22179 19.8895 4.33313 19.3414 3.78502L18.2122 2.65589C17.6656 2.10929 16.7794 2.10929 16.2328 2.65589C15.7835 3.10519 15.0921 3.18444 14.5093 2.9312C14.4157 2.89053 14.3218 2.85161 14.2277 2.81443C13.6353 2.58058 13.2 2.03476 13.2 1.3979ZM11 6C8.23858 6 6 8.23858 6 11C6 13.7614 8.23858 16 11 16C13.7614 16 16 13.7614 16 11C16 8.23858 13.7614 6 11 6Z" fill="#1B1B21"/>
</svg>
