<svg width="25" height="24" viewBox="0 0 25 24" fill="none" xmlns="http://www.w3.org/2000/svg">
<path d="M13.1662 2.15268C12.8639 1.94911 12.4701 1.94911 12.1678 2.15268L4.06776 7.60723C3.81738 7.77583 3.66699 8.05968 3.66699 8.36364C3.66699 14.3652 5.79193 17.8081 8.03334 19.7369C9.13879 20.6882 10.2452 21.2477 11.0796 21.5704C11.4972 21.7319 11.8489 21.8349 12.1016 21.8985C12.2281 21.9302 12.3301 21.9522 12.4036 21.9667C12.4403 21.974 12.47 21.9793 12.492 21.9832L12.5194 21.9877L12.5286 21.9892L12.5322 21.9897L12.5336 21.99C12.5336 21.99 12.5349 21.9902 12.667 21.0909L12.5349 21.9902C12.6225 22.0033 12.7115 22.0033 12.799 21.9902L12.667 21.0909C12.799 21.9902 12.8003 21.99 12.8003 21.99L12.8018 21.9897L12.8053 21.9892L12.8146 21.9877L12.842 21.9832C12.864 21.9793 12.8937 21.974 12.9304 21.9667C13.0039 21.9522 13.1059 21.9302 13.2324 21.8985C13.4851 21.8349 13.8368 21.7319 14.2544 21.5704C15.0887 21.2477 16.1952 20.6882 17.3006 19.7369C19.5421 17.8081 21.667 14.3652 21.667 8.36364C21.667 8.05968 21.5166 7.77583 21.2662 7.60723L13.1662 2.15268Z" fill="#1B1B21"/>
</svg>
