<svg width="18" height="18" viewBox="0 0 18 18" fill="none" xmlns="http://www.w3.org/2000/svg">
<path d="M9.19531 15.9346C9.50582 15.926 9.7648 16.171 9.77344 16.4814C9.78201 16.7919 9.53705 17.0509 9.22656 17.0596C9.15132 17.0616 9.07571 17.0625 9 17.0625C8.92429 17.0625 8.84868 17.0616 8.77344 17.0596C8.46295 17.0509 8.21799 16.7919 8.22656 16.4814C8.2352 16.171 8.49418 15.926 8.80469 15.9346C8.86956 15.9364 8.93466 15.9375 9 15.9375C9.06534 15.9375 9.13044 15.9364 9.19531 15.9346ZM5.42285 15.6172C5.55003 15.334 5.88265 15.207 6.16602 15.334C6.28408 15.3869 6.40395 15.437 6.52539 15.4834C6.81537 15.5943 6.96024 15.9189 6.84961 16.209C6.73879 16.4991 6.41418 16.6449 6.12402 16.5342C5.98287 16.4803 5.84326 16.4228 5.70605 16.3613C5.42256 16.2343 5.2958 15.9007 5.42285 15.6172ZM11.834 15.334C12.1174 15.207 12.45 15.334 12.5771 15.6172C12.7042 15.9007 12.5774 16.2343 12.2939 16.3613C12.1567 16.4228 12.0171 16.4803 11.876 16.5342C11.5858 16.6449 11.2612 16.4991 11.1504 16.209C11.0398 15.9189 11.1846 15.5943 11.4746 15.4834C11.596 15.437 11.7159 15.3869 11.834 15.334ZM3.16309 13.7441C3.38878 13.5307 3.74552 13.54 3.95898 13.7656C4.04818 13.8599 4.14006 13.9518 4.23438 14.041C4.46004 14.2545 4.46931 14.6112 4.25586 14.8369C4.04236 15.0622 3.68651 15.0717 3.46094 14.8584C3.35155 14.7549 3.24506 14.6485 3.1416 14.5391C2.92827 14.3135 2.93777 13.9576 3.16309 13.7441ZM14.041 13.7656C14.2545 13.54 14.6112 13.5307 14.8369 13.7441C15.0622 13.9576 15.0717 14.3135 14.8584 14.5391C14.7549 14.6485 14.6485 14.7549 14.5391 14.8584C14.3135 15.0717 13.9576 15.0622 13.7441 14.8369C13.5307 14.6112 13.54 14.2545 13.7656 14.041C13.8599 13.9518 13.9518 13.8599 14.041 13.7656ZM1.79102 11.1504C2.08109 11.0398 2.40571 11.1846 2.5166 11.4746C2.56299 11.596 2.6131 11.7159 2.66602 11.834C2.79301 12.1174 2.66604 12.45 2.38281 12.5771C2.09932 12.7042 1.76572 12.5774 1.63867 12.2939C1.57719 12.1567 1.51974 12.0171 1.46582 11.876C1.35512 11.5858 1.50088 11.2612 1.79102 11.1504ZM15.4834 11.4746C15.5943 11.1846 15.9189 11.0398 16.209 11.1504C16.4991 11.2612 16.6449 11.5858 16.5342 11.876C16.4803 12.0171 16.4228 12.1567 16.3613 12.2939C16.2343 12.5774 15.9007 12.7042 15.6172 12.5771C15.334 12.45 15.207 12.1174 15.334 11.834C15.3869 11.7159 15.437 11.596 15.4834 11.4746ZM9 3.9375C9.31066 3.9375 9.5625 4.18934 9.5625 4.5V7.60938C9.93842 7.76158 10.2384 8.06158 10.3906 8.4375H12C12.3107 8.4375 12.5625 8.68934 12.5625 9C12.5625 9.31066 12.3107 9.5625 12 9.5625H10.3906C10.1681 10.1122 9.62946 10.5 9 10.5C8.17157 10.5 7.5 9.82843 7.5 9C7.5 8.37054 7.88784 7.83192 8.4375 7.60938V4.5C8.4375 4.18934 8.68934 3.9375 9 3.9375ZM1.51855 8.22656C1.82904 8.2352 2.074 8.49418 2.06543 8.80469C2.06364 8.86956 2.0625 8.93466 2.0625 9C2.0625 9.06534 2.06364 9.13044 2.06543 9.19531C2.074 9.50582 1.82904 9.7648 1.51855 9.77344C1.20805 9.78201 0.949065 9.53705 0.94043 9.22656C0.938352 9.15132 0.9375 9.07571 0.9375 9C0.9375 8.92429 0.938352 8.84868 0.94043 8.77344C0.949066 8.46295 1.20805 8.21799 1.51855 8.22656ZM9 0.9375C13.4528 0.9375 17.0625 4.5472 17.0625 9C17.0625 9.07571 17.0616 9.15132 17.0596 9.22656C17.0509 9.53705 16.7919 9.78201 16.4814 9.77344C16.171 9.7648 15.926 9.50582 15.9346 9.19531C15.9364 9.13044 15.9375 9.06534 15.9375 9C15.9375 5.16852 12.8315 2.0625 9 2.0625C8.93466 2.0625 8.86956 2.06364 8.80469 2.06543C8.49418 2.074 8.2352 1.82904 8.22656 1.51855C8.21799 1.20805 8.46295 0.949066 8.77344 0.94043C8.84868 0.938352 8.92429 0.9375 9 0.9375ZM1.63867 5.70605C1.76572 5.42256 2.09932 5.2958 2.38281 5.42285C2.66604 5.55003 2.79301 5.88265 2.66602 6.16602C2.6131 6.28408 2.56299 6.40395 2.5166 6.52539C2.40571 6.81537 2.08109 6.96024 1.79102 6.84961C1.50088 6.73879 1.35512 6.41418 1.46582 6.12402C1.51974 5.98287 1.57719 5.84326 1.63867 5.70605ZM3.46094 3.1416C3.68651 2.92827 4.04236 2.93777 4.25586 3.16309C4.46931 3.38878 4.46004 3.74552 4.23438 3.95898C4.14006 4.04818 4.04818 4.14006 3.95898 4.23438C3.74552 4.46004 3.38878 4.46931 3.16309 4.25586C2.93777 4.04236 2.92827 3.68651 3.1416 3.46094C3.24506 3.35155 3.35155 3.24506 3.46094 3.1416ZM6.12402 1.46582C6.41418 1.35512 6.73879 1.50088 6.84961 1.79102C6.96024 2.08109 6.81537 2.40571 6.52539 2.5166C6.40395 2.56299 6.28408 2.6131 6.16602 2.66602C5.88265 2.79301 5.55003 2.66604 5.42285 2.38281C5.2958 2.09932 5.42256 1.76572 5.70605 1.63867C5.84326 1.57719 5.98287 1.51974 6.12402 1.46582Z" fill="#101F79"/>
</svg>
