<svg width="121" height="144" viewBox="0 0 121 144" fill="none" xmlns="http://www.w3.org/2000/svg">
<path d="M108.123 31.7205C105.546 25.636 101.859 20.16 97.1707 15.4535C92.4821 10.7649 87.006 7.06052 80.9036 4.50146C74.5865 1.83503 67.8936 0.474976 60.9859 0.474976C54.0783 0.474976 47.3854 1.83503 41.0683 4.50146C34.9838 7.07841 29.5078 10.7649 24.8013 15.4535C20.1127 20.1421 16.4262 25.6182 13.8493 31.7205C12.0955 35.8544 10.9143 40.1493 10.3059 44.5516C12.0418 41.7241 15.3524 39.4693 19.3789 39.344C24.676 21.3948 41.3367 8.24164 60.9859 8.24164C80.6352 8.24164 97.278 21.3769 102.593 39.344C106.619 39.4693 109.948 41.7599 111.666 44.6053C111.058 40.1672 109.876 35.8544 108.123 31.7026V31.7205ZM30.2594 133.081H28.2014L24.1928 142.816H26.3403L27.1098 140.722H31.3153L32.1205 142.816H34.2859L30.2594 133.081ZM27.8077 139.022L29.2394 135.3L30.671 139.022H27.8077ZM38.8313 140.99V133.081H36.7376V142.816H43.341V140.99H38.8313ZM51.0181 133.081H48.9602L44.9517 142.816H47.0633L47.8686 140.722H52.074L52.8793 142.816H55.0446L51.0181 133.081ZM48.5487 139.022L49.9803 135.3L51.4119 139.022H48.5487ZM61.5765 133.081H57.4964V142.816H61.5765C68.2337 142.816 68.2515 133.081 61.5765 133.081ZM59.5902 140.955V134.924C61.2902 134.924 64.4398 134.476 64.4398 137.93C64.4398 141.384 61.3081 140.955 59.5902 140.955ZM71.7232 141.026V138.771H75.8929V137H71.7232V134.888H76.4298V133.081H69.6295V142.816H76.6088V141.008H71.7232V141.026ZM78.792 133.081V134.906H81.6731V142.816H83.767V134.906H86.6302V133.081H78.8099H78.792ZM89.2787 133.081V142.816H91.3726V133.081H89.2787ZM67.9115 68.8537V78.8214H58.1943L38.563 43.621C36.0397 44.8379 33.5343 46.019 33.5343 48.9002C33.5343 51.334 33.9817 51.495 49.2644 78.8036H16.802C13.1334 79.2509 9.8228 81.0763 7.58586 84.2438V62.0534C7.28164 58.5637 3.98886 56.7026 0.982422 57.83C2.21721 55.8794 5.18788 54.072 9.05331 55.2173L9.87643 55.4499V54.591C10.1091 50.3139 14.0104 46.7885 17.5716 46.198V68.7821H32.4964C25.6782 56.6847 23.6918 54.1436 23.6918 48.9181C23.6918 46.3053 24.2466 43.8536 25.4993 41.5809C27.9331 37.0355 31.4942 36.0333 42.7504 30.3426C63.9566 68.6926 63.7419 67.9947 63.7419 68.8179H67.9115V68.8537ZM121.007 57.8658C117.965 56.7026 114.708 58.6174 114.404 62.1428L114.35 84.2796C111.988 80.9331 108.373 79.0362 104.705 78.8393H84.8227V68.8715H104.365L104.418 46.2516C107.872 46.8064 111.863 50.2423 112.078 54.6446V55.5036L112.937 55.271C116.534 54.1973 119.647 55.7542 121.007 57.8837V57.8658ZM114.368 91.5094V131.506C111.952 128.07 108.355 126.262 104.562 126.066H17.3567C13.545 126.28 9.96596 128.124 7.58586 131.506V116.044H48.5665C48.5665 113.36 49.0676 110.783 47.5107 107.705C46.1327 105.074 44.361 103.732 42.303 103.07C40.1198 102.247 40.3346 102.461 21.4728 102.461C22.0633 98.8465 25.6066 94.999 29.8658 94.8021H30.7247L30.4921 93.9431C29.4183 90.364 30.9395 87.2502 33.1048 85.8723C32.4964 87.5007 32.6932 89.6303 34.1427 90.9904C36.0575 92.9052 38.1872 92.7799 41.0504 92.7799C53.0225 92.7799 58.5164 101.441 58.5164 112.805V116.044H71.419C71.419 38.2345 70.8643 40.024 72.6538 38.2524C74.2107 36.6954 75.6602 37.3755 76.3045 37.5902C76.394 34.4943 78.7204 32.0963 81.4048 30.5215V116.062H104.383C104.383 103.875 103.971 100.851 105.617 99.2581C107.121 97.737 108.499 98.3454 109.268 98.596C109.358 95.5 111.684 93.102 114.368 91.5272V91.5094ZM60.9859 39.3261L54.2751 32.6153L60.9859 25.9045L67.6968 32.6153L60.9859 39.3261ZM60.9859 25.5108L55.8679 20.3927L60.9859 15.2746L66.1041 20.3927L60.9859 25.5108ZM88.8313 87.8229L93.9495 82.7048L99.0676 87.8229L93.9495 92.941L88.8313 87.8229ZM88.8313 98.0949L93.9495 92.9768L99.0676 98.0949L93.9495 103.213L88.8313 98.0949ZM8.40898 90.364L13.5272 85.2459L18.6453 90.364L13.5272 95.4822L8.40898 90.364ZM97.9938 138.056L103.47 132.579L108.946 138.056L103.47 143.532L97.9938 138.056ZM8.40898 100.654L13.5272 95.5358L18.6453 100.654L13.5272 105.772L8.40898 100.654ZM21.2043 137.769C23.0654 136.695 23.1192 133.081 19.0032 133.081H14.6009V142.816C18.8958 142.816 22.8507 143.388 22.8507 140.167C22.8507 138.932 22.1885 138.109 21.1864 137.769H21.2043ZM16.6589 134.781C18.6811 134.781 20.3095 134.548 20.3095 135.89C20.3095 137.322 18.6095 137.053 16.6589 137.053V134.763V134.781ZM16.6589 141.134V138.7C19.0927 138.7 20.739 138.431 20.739 139.935C20.739 141.438 19.0748 141.134 16.6589 141.134Z" fill="url(#paint0_linear_3833_9477)"/>
<defs>
<linearGradient id="paint0_linear_3833_9477" x1="61.0039" y1="23.0233" x2="61.0039" y2="143.299" gradientUnits="userSpaceOnUse">
<stop stop-color="#E1C68F"/>
<stop offset="1" stop-color="#C1AB7A"/>
</linearGradient>
</defs>
</svg>
