<svg width="18" height="18" viewBox="0 0 18 18" fill="none" xmlns="http://www.w3.org/2000/svg">
<circle opacity="0.4" cx="9" cy="9" r="7.5" fill="#BB0013"/>
<path d="M8.25 12.75C8.25 12.3358 8.58579 12 9 12C9.41421 12 9.75 12.3358 9.75 12.75C9.75 13.1642 9.41421 13.5 9 13.5C8.58579 13.5 8.25 13.1642 8.25 12.75Z" fill="#BB0013"/>
<path fill-rule="evenodd" clip-rule="evenodd" d="M9 11.0625C8.68934 11.0625 8.4375 10.8107 8.4375 10.5L8.4375 5.25C8.4375 4.93934 8.68934 4.6875 9 4.6875C9.31066 4.6875 9.5625 4.93934 9.5625 5.25L9.5625 10.5C9.5625 10.8107 9.31066 11.0625 9 11.0625Z" fill="#BB0013"/>
</svg>
