<svg width="78" height="78" viewBox="0 0 78 78" fill="none" xmlns="http://www.w3.org/2000/svg">
<path opacity="0.4" d="M32.5717 74.3216L3.14355 34.5936C0.768003 31.3866 1.09228 26.8729 4.18336 24.3484C25.9755 6.55054 52.0249 6.55054 73.817 24.3484C76.9081 26.8729 77.2324 31.3866 74.8568 34.5936L45.4286 74.3216C42.2304 78.6392 35.7699 78.6392 32.5717 74.3216Z" fill="#1B1B21"/>
<path fill-rule="evenodd" clip-rule="evenodd" d="M0.87868 0.87868C2.05025 -0.292893 3.94975 -0.292893 5.12132 0.87868L77.1213 72.8787C78.2929 74.0503 78.2929 75.9497 77.1213 77.1213C75.9497 78.2929 74.0503 78.2929 72.8787 77.1213L0.87868 5.12132C-0.292893 3.94975 -0.292893 2.05025 0.87868 0.87868Z" fill="#1B1B21"/>
<path d="M32.5712 74.3216L3.14306 34.5936C0.767515 31.3866 1.09179 26.8729 4.18287 24.3484C9.05055 20.3729 14.1306 17.2854 19.3283 15.0859L59.5285 55.2862L45.4282 74.3216C42.23 78.6392 35.7694 78.6392 32.5712 74.3216Z" fill="#1B1B21"/>
</svg>
